<svg xmlns="http://www.w3.org/2000/svg" width="150" height="50"><path fill="#444" d="M20.51 47.05L20.47 47.01L20.49 47.04Q19.54 47.22 17.63 47.52L17.73 47.62L17.69 47.58Q19.00 45.43 20.03 44.13L20.07 44.18L20.07 44.17Q21.81 44.47 21.96 44.47L22.00 44.51L21.95 44.46Q22.22 44.50 22.75 44.38L22.78 44.41L22.82 44.45Q23.45 44.32 23.64 44.32L23.68 44.36L23.71 44.39Q26.25 44.11 26.17 41.94L26.13 41.89L26.03 41.80Q25.99 40.31 25.87 34.06L25.88 34.07L26.00 34.19Q25.94 30.63 26.02 26.48L26.05 26.52L27.38 26.25L27.41 26.28Q27.98 26.08 28.67 25.86L28.78 25.97L28.63 25.82Q28.58 30.41 28.62 34.79L28.62 34.80L28.47 34.65Q28.57 39.08 29.10 43.46L29.02 43.38L29.19 43.55Q29.16 43.75 29.16 44.01L29.11 43.97L29.27 44.12Q29.27 45.76 27.59 46.14L27.50 46.04L27.45 46.00Q24.35 46.39 20.50 47.04ZM27.34 22.89L25.22 19.79L25.19 19.75Q26.28 18.41 28.11 15.63L27.95 15.47L28.01 15.53Q28.73 16.47 30.06 18.30L29.96 18.20L27.30 22.85ZM30.30 49.45L30.42 49.57L30.33 49.48Q30.76 49.42 31.52 49.07L31.70 49.25L31.63 49.19Q32.02 48.55 32.02 48.09L32.01 48.08L31.99 48.06Q32.02 47.75 31.90 47.14L31.78 47.01L31.91 47.14Q30.54 40.71 30.54 32.79L30.47 32.72L30.41 32.67Q30.38 29.77 30.53 26.88L30.59 26.94L30.65 27.00Q30.12 27.20 28.98 27.50L28.91 27.43L28.90 27.42Q28.91 26.93 28.95 26.40L28.98 26.43L29.17 25.45L29.17 25.44Q27.42 26.06 25.63 26.10L25.55 26.01L25.70 26.16Q25.54 30.38 25.57 33.96L25.61 33.99L25.76 41.87L25.70 41.81Q25.73 43.74 23.56 43.86L23.58 43.88L23.64 43.93Q23.43 43.96 22.92 44.02L22.94 44.04L22.97 44.06Q22.38 44.05 22.11 44.05L22.01 43.95L22.17 44.11Q21.66 44.05 20.09 43.63L20.11 43.65L19.97 43.50Q19.63 44.23 18.53 45.90L18.47 45.85L17.04 48.26L17.02 48.25Q17.75 47.90 19.38 47.52L19.55 47.69L19.02 48.34L18.53 49.03L18.55 49.05Q20.72 48.78 22.05 48.86L22.02 48.83L22.20 49.01Q24.36 49.04 30.30 49.46ZM27.37 23.69L27.26 23.58L27.72 23.15L27.55 22.99Q28.06 23.58 29.02 25.18L28.86 25.02L29.05 25.21Q30.40 21.92 31.96 18.83L32.03 18.90L32.02 18.89Q31.05 17.31 30.10 16.02L30.04 15.96L30.02 15.94Q29.87 16.21 29.53 16.75L29.48 16.70L29.64 16.86Q29.06 16.05 28.07 14.76L28.14 14.83L28.23 14.91Q27.01 16.48 24.69 19.83L24.62 19.75L24.66 19.79Q25.65 21.09 27.37 23.68Z"/><path d="M2 21 C90 26,92 19,141 9" stroke="#888" fill="none"/><path fill="#333" d="M79.16 41.08L79.23 41.14L79.11 41.03Q82.43 36.92 89.13 29.00L89.13 29.00L89.03 28.90Q83.20 29.21 79.43 27.83L79.42 27.83L79.43 27.83Q78.69 26.33 77.93 24.92L77.95 24.94L78.00 24.99Q82.12 26.52 86.57 26.56L86.47 26.46L86.41 26.40Q91.02 26.59 95.21 25.53L95.22 25.53L95.23 25.55Q94.80 26.19 94.54 26.72L94.37 26.55L94.49 26.68Q91.98 28.92 89.16 32.54L89.20 32.58L84.29 38.79L84.25 38.74Q86.53 38.58 88.77 38.66L88.65 38.54L88.70 38.58Q90.78 38.53 93.02 38.91L93.19 39.08L93.16 39.05Q93.34 39.69 94.07 41.71L93.91 41.55L93.96 41.60Q90.33 40.86 86.33 40.98L86.21 40.85L86.17 40.81Q82.32 41.04 78.67 42.22L78.67 42.22L78.74 42.29Q78.78 42.10 79.24 41.15ZM78.11 42.84L78.04 42.77L78.11 42.84Q78.80 42.42 80.39 42.01L80.46 42.07L80.46 42.07Q80.14 42.21 79.72 42.63L79.82 42.73L79.72 42.63Q79.62 43.32 79.01 44.46L78.89 44.35L78.95 44.40Q83.71 43.12 88.70 43.27L88.75 43.32L88.75 43.32Q93.55 43.32 98.11 45.18L98.25 45.32L98.18 45.25Q96.64 43.29 95.72 41.23L95.86 41.37L95.91 41.41Q95.13 41.09 94.06 40.86L94.07 40.87L94.07 40.88Q93.72 39.99 93.34 38.55L93.45 38.66L93.42 38.62Q91.81 38.23 88.23 38.11L88.36 38.25L88.30 38.19Q90.78 34.95 95.80 28.60L95.68 28.47L95.68 28.48Q95.92 27.72 96.61 26.39L96.67 26.45L94.36 27.19L94.47 27.31Q94.49 27.17 94.64 27.05L94.68 27.09L94.75 26.78L94.71 26.74Q95.31 25.81 95.88 24.86L95.86 24.84L95.83 24.81Q91.08 26.08 86.36 26.01L86.44 26.08L86.49 26.13Q81.63 26.00 77.14 24.17L77.26 24.29L77.17 24.20Q78.43 26.14 79.23 28.20L79.13 28.10L79.16 28.14Q79.94 28.38 81.01 28.65L80.98 28.62L81.15 28.79Q81.22 29.36 81.53 30.81L81.47 30.75L81.58 30.86Q83.15 31.10 86.47 31.25L86.52 31.31L86.39 31.17Q84.01 34.51 78.83 40.94L78.91 41.01L78.86 40.97Q78.57 41.51 77.99 42.73Z"/><path fill="#444" d="M66.43 34.68L66.54 34.80L66.50 34.76Q66.37 38.20 63.21 39.49L63.37 39.66L63.23 39.52Q61.37 40.36 56.96 40.52L56.97 40.53L56.95 40.51Q52.20 40.68 49.96 39.50L50.01 39.55L49.94 39.48Q48.19 38.26 48.34 34.91L48.35 34.92L48.20 34.76Q48.38 34.30 48.57 32.32L48.48 32.23L48.49 32.24Q48.51 30.54 48.51 29.55L48.66 29.71L48.54 29.59Q48.63 21.68 44.44 14.26L44.43 14.25L44.43 14.25Q45.60 14.92 48.57 15.99L48.43 15.84L48.43 15.84Q51.49 22.75 51.49 30.14L51.39 30.04L51.45 30.09Q51.47 30.73 51.37 31.91L51.42 31.95L51.25 31.79Q51.21 33.02 51.21 33.63L51.15 33.57L51.24 33.66Q51.24 35.94 52.80 36.93L52.87 37.00L52.76 36.89Q54.34 37.63 57.31 37.63L57.48 37.81L57.45 37.77Q60.07 37.77 61.71 36.59L61.69 36.57L61.64 36.52Q63.62 35.30 63.46 32.79L63.42 32.74L63.40 32.72Q63.26 31.28 63.26 29.95L63.19 29.89L63.29 29.99Q63.32 22.97 65.72 16.46L65.61 16.35L67.88 15.88L67.83 15.83Q68.81 15.55 69.91 15.10L69.96 15.15L69.94 15.13Q66.16 22.19 66.16 29.77L66.25 29.87L66.19 29.80Q66.24 30.69 66.38 32.33L66.30 32.25L66.40 32.35Q66.52 33.98 66.52 34.77ZM68.54 35.54L68.67 35.67L68.55 35.55Q67.78 30.70 68.50 25.60L68.38 25.48L68.38 25.48Q69.19 20.35 71.59 15.97L71.58 15.97L71.67 16.05Q70.87 16.17 69.43 16.82L69.45 16.84L69.57 16.96Q69.83 16.01 70.63 14.45L70.71 14.52L70.64 14.46Q67.18 15.68 65.28 16.02L65.40 16.14L65.35 16.10Q63.01 22.62 63.01 29.89L62.93 29.81L62.96 29.85Q63.02 31.28 63.10 32.69L62.98 32.57L62.94 32.53Q63.11 34.95 61.32 36.17L61.33 36.17L61.36 36.20Q59.93 37.32 57.42 37.36L57.33 37.28L57.32 37.26Q54.52 37.28 53.07 36.52L53.17 36.61L53.15 36.60Q53.05 36.07 52.97 35.62L53.01 35.66L53.02 35.67Q52.93 35.12 53.05 34.63L53.13 34.71L53.01 34.59Q53.29 32.31 53.29 29.99L53.40 30.10L53.26 29.97Q53.30 24.19 51.78 18.29L51.77 18.28L51.74 18.25Q51.13 18.24 49.72 17.90L49.74 17.92L49.61 17.79Q49.18 16.45 48.73 15.54L48.81 15.61L48.70 15.51Q46.01 14.76 43.62 13.39L43.69 13.47L43.64 13.42Q48.35 21.10 48.35 29.82L48.30 29.76L48.29 29.76Q48.26 31.36 48.10 33.07L48.24 33.20L48.06 33.03Q48.01 35.60 48.08 36.78L48.01 36.71L48.00 36.70Q48.18 38.67 49.44 39.81L49.34 39.72L49.35 39.72Q50.37 42.23 55.01 42.61L55.00 42.59L54.98 42.57Q57.15 42.80 59.28 42.88L59.33 42.93L59.35 42.95Q64.61 43.03 67.38 42.07L67.49 42.18L67.41 42.10Q68.90 41.12 68.90 39.06L68.92 39.08L68.94 39.09Q69.00 38.02 68.55 35.55Z"/><path fill="#444" d="M108.72 41.03L108.80 41.11L108.74 41.06Q112.02 36.91 118.72 28.99L118.71 28.99L118.67 28.94Q112.66 29.06 108.89 27.69L109.02 27.82L108.90 27.70Q108.38 26.42 107.62 25.01L107.60 24.99L107.47 24.86Q111.58 26.38 116.03 26.42L116.15 26.54L116.12 26.51Q120.59 26.56 124.78 25.50L124.68 25.40L124.81 25.53Q124.34 26.12 124.07 26.65L124.00 26.58L123.97 26.55Q121.60 28.94 118.78 32.55L118.78 32.56L113.90 38.80L113.82 38.71Q116.07 38.52 118.31 38.60L118.25 38.54L118.24 38.53Q120.47 38.62 122.71 39.00L122.68 38.97L122.77 39.06Q122.83 39.58 123.56 41.60L123.56 41.60L123.68 41.72Q119.84 40.77 115.84 40.88L115.90 40.95L115.86 40.90Q111.91 41.03 108.26 42.21L108.23 42.19L108.33 42.28Q108.36 42.08 108.81 41.13ZM107.72 42.85L107.59 42.72L107.74 42.87Q108.49 42.52 110.09 42.10L110.04 42.05L110.00 42.01Q109.73 42.20 109.31 42.61L109.37 42.67L109.46 42.76Q109.25 43.36 108.64 44.50L108.57 44.43L108.52 44.38Q113.30 43.10 118.29 43.26L118.23 43.20L118.27 43.24Q123.30 43.47 127.87 45.33L127.81 45.27L127.83 45.30Q126.40 43.45 125.49 41.40L125.37 41.28L125.49 41.40Q124.70 41.07 123.64 40.84L123.51 40.72L123.65 40.85Q123.41 40.08 123.03 38.63L122.94 38.55L122.94 38.55Q121.41 38.23 117.83 38.12L117.90 38.19L117.98 38.27Q120.23 34.80 125.25 28.44L125.27 28.47L125.36 28.55Q125.64 27.85 126.33 26.51L126.35 26.54L123.99 27.22L123.95 27.18Q124.05 27.13 124.20 27.01L124.11 26.92L124.46 26.90L124.41 26.84Q124.81 25.72 125.38 24.77L125.51 24.90L125.43 24.82Q120.68 26.08 115.96 26.00L116.09 26.13L116.12 26.17Q111.20 25.96 106.71 24.14L106.73 24.16L106.82 24.25Q107.93 26.05 108.73 28.11L108.78 28.15L108.85 28.22Q109.67 28.51 110.73 28.77L110.71 28.75L110.57 28.61Q110.88 29.41 111.18 30.86L111.15 30.83L111.22 30.90Q112.81 31.15 116.12 31.30L116.05 31.24L116.05 31.23Q113.68 34.57 108.50 41.00L108.40 40.91L108.57 41.07Q108.30 41.64 107.73 42.86Z"/></svg>